<svg id="圖層_1" data-name="圖層 1" xmlns="http://www.w3.org/2000/svg" viewBox="0 0 730.33 404.78"><defs><style>.cls-1,.cls-3{opacity:0.8;}.cls-2,.cls-3{fill:#fcfcfc;}.cls-3{font-size:147.83px;font-family:BrushScriptMT, Brush Script MT;}</style></defs><title>Logo_Swfs-1</title><g class="cls-1"><path class="cls-2" d="M230.35,398.25c-22.78-8.19-37.27-13.51-60.92-23,15.85-10.16,30-28.22,41.58-40.7.69,1.54,1.1,6.37,2,11.08a12,12,0,0,0,12.08,9.88c27.86-.86,58.3-10.86,79.56-28.51,32.63-23.06,38.09-75.29,52.5-104.18,8.5,1.34,32.74,152.17-124.89,161.44a5.26,5.26,0,0,0-4.57,7.18Z" transform="translate(-134.83 -47.05)"/><path class="cls-2" d="M589.18,271.54c12.23-20.09,20.07-33.15,31.91-54.29a1.14,1.14,0,0,0-1.09-1.69,125.88,125.88,0,0,1-27.45-1.24c-4.85-.69-9.68-1.54-14.51-2.36-2.89-.48-13.82-2.16-13.82-2.16s4.72,9.13,6.36,12,3.4,7,1.54,9.65a7.65,7.65,0,0,1-2.42,2c-16.42,10.28-33.47,19.86-52.08,25.26-29.51,8.55-58.87,2.78-86.93-12.49-17.34-9.44-33.27-21.51-49.11-33.54-2.07,2.14-2.37,5.63-1.48,8.61a25.72,25.72,0,0,0,4.62,8,246.2,246.2,0,0,0,27.12,30.1c14.89,14,31.89,26.25,51.06,31.87,18.39,5.4,37.94,4.39,56.06-.56,20.32-5.55,40.11-15.57,57.13-28,1.94-1.42,7-5.51,8.93-7Z" transform="translate(-134.83 -47.05)"/><circle class="cls-2" cx="221.08" cy="143.27" r="23.09"/><path class="cls-2" d="M202.93,188.42c-4.63-1.74-8.82-6.28-11.35-10.27a33.85,33.85,0,0,1-5.09-18.36,30.16,30.16,0,0,1,7.8-20.34c13.68-14.5,39.1-11.65,55.64-7.07,15.38,4.27,29.34,13.23,40.92,24.94a125.49,125.49,0,0,1,15.65,19.46c1.56,2.37,8.83,12.34,9.73,17.66a3.09,3.09,0,0,1-.49,2.73,3.42,3.42,0,0,1-3.65.64,11.46,11.46,0,0,1-3.26-2.19c-3.19-2.69-7.32-4.59-10.86-6.63a245.75,245.75,0,0,0-25.79-13.09c-9.67-4.18-19.79-7.8-30.2-9.1-8-1-17.46-.72-24.07,5.34-2.84,2.61-6,6.15-6,10.45a15.76,15.76,0,0,1-.1,2.92,5,5,0,0,1-4.72,3.63A10.65,10.65,0,0,1,202.93,188.42Z" transform="translate(-134.83 -47.05)"/><path class="cls-2" d="M325.93,212.48c-4.05.78-8.21,3.06-12.15,4.48a258.35,258.35,0,0,1-40,10.94c-8.38,1.58-17.39,3.28-25.77,3.14-14.27.73-28.62-.36-41.82-4.68-13.62-4.45-25.56-12.52-34-23.93-4.39-5.92-7.5-12.47-10.3-19.36-.85-2.08-3.62-1.74-5.49-.86-4.4,2.07-6.9,7.72-9.1,11.78-8.17,15-13.76,33.13-12.17,49.54,1.89,19.52,15.23,32.6,32.49,39.18a87.08,87.08,0,0,0,9.6,3,62.05,62.05,0,0,0,13.1,1.52,131,131,0,0,0,35.52-3.81c18.05-4.32,35.54-12,51.8-21.83a239.15,239.15,0,0,0,27.5-19.58q6.56-5.37,12.81-11.12c3.81-3.49,8.06-6.92,11.06-11.17,1.32-1.86,2.4-4.39,1.23-6.11a3.67,3.67,0,0,0-3.48-1.29C326.46,212.39,326.2,212.43,325.93,212.48Z" transform="translate(-134.83 -47.05)"/><path class="cls-2" d="M479.22,90.86c2.52-4.26,2.92-10.42,2.39-15.12A34,34,0,0,0,474,58.25,30.19,30.19,0,0,0,455.2,47.32c-19.75-2.7-37.75,15.48-47.74,29.44-9.29,13-14.53,28.72-16.19,45.1a125.53,125.53,0,0,0,0,25c.28,2.83.87,15.15,3.51,19.86a3.11,3.11,0,0,0,2.1,1.82,3.41,3.41,0,0,0,3.24-1.8,11.07,11.07,0,0,0,1.16-3.76c.8-4.09,2.82-8.15,4.29-12a249.06,249.06,0,0,1,11.85-26.38c4.91-9.33,10.51-18.5,17.79-26,5.64-5.84,13.14-11.53,22.09-11,3.85.24,8.51,1,11.28,4.33a15,15,0,0,0,1.91,2.21,5,5,0,0,0,6-.14A10.64,10.64,0,0,0,479.22,90.86Z" transform="translate(-134.83 -47.05)"/><path class="cls-2" d="M398.6,186.82c3.65-1.93,8.31-2.78,12.27-4.15a258.3,258.3,0,0,0,38-16.59c7.5-4,15.59-8.37,22-13.74,11.57-8.39,22.05-18.26,29.61-29.9,7.81-12,12-25.8,11.46-40-.3-7.36-2-14.42-4.14-21.54-.65-2.15,1.72-3.62,3.73-4.11,4.73-1.15,10.22,1.68,14.48,3.45,15.8,6.58,31.51,17.15,40.57,30.92,10.79,16.38,8.63,34.93-.67,50.89a90.38,90.38,0,0,1-5.56,8.4,62.77,62.77,0,0,1-9.25,9.41,131.27,131.27,0,0,1-30,19.33c-16.77,8-35.19,13-54,15.54a239.51,239.51,0,0,1-33.69,2q-8.47-.06-17-.61c-5.16-.32-10.61-.33-15.62-1.75-2.19-.62-4.63-1.91-4.79-4a3.65,3.65,0,0,1,1.9-3.19A7.84,7.84,0,0,1,398.6,186.82Z" transform="translate(-134.83 -47.05)"/></g><text class="cls-3" transform="translate(274.01 354.83) scale(1.19 1)">SWFS</text></svg>