<svg id="ff75fbce-22aa-40d4-92cd-15785bbc85ab" data-name="svg2606" xmlns="http://www.w3.org/2000/svg" viewBox="0 0 850 1200"><title>Southern_Taiwan_official_determined</title><path id="e52b7b5f-bede-4abe-ae58-726305361f62" data-name="path2417" d="M404.2,421.1l-2,7.1V432l-5.1,10.4,1.8,3,2.8,1,3.5,4.5L408,452l2,1.7,3,.8,5.8-1,1.3,3.3,3.3-.3,1.7-2,2.6-1.3,6.3-1.5,2.5-1.3.8-3v-3.3l-2.8-1-1.8-2.3,2.3-1.5,3.3.5,2.8,1.3h7l6.3-1.5,1.8-2h7.6l.2-11.2-2.2-1.5-2.8-1-4.3-3.3h-3.5l-4.1,4.8-2.3,1.5-6,1.8-3.6.3-2.5-1.3-1.5-2.3h-7.1l-2.2-1.5h-3.1l-2.5,1.8-5.5-1.8-2.8-1.8-3.8-1Z" style="fill:#efa;stroke:#000;stroke-miterlimit:10"/><path id="afae0852-897c-4119-8e1f-59d0fdd73aa3" data-name="Keelung" d="M763.6,121.7v-1.1l-1.1-1.1.5-3.4h-1.7l-2.4,1.5-2.2-2-1.9-.2-.9-.6v-2.1l-1.6-.4-.8,1.4-1.5.3-.3-1.5h-1.3l.5,1.5,1.4,2.1-1.8,2.2-2.8,2.1h-1.2l2.3-2.2-.8-1.3v-3.2h-1.5l-1.4-.8-1.8-.2-2-2.1h-3.9l-1.1-.7.2-1.4-.4-.9-1.8,1.2-2,.7-1.1,1.6-2.3.5-1.2,1.6-4.1,1.8-2.5.2-2,.7-1.8,1.3-4.8.5v2.7l1.1,2,2.3.7,1.4,1.6.2,2.5,3,6.8,2.4,1.6,1.6,2.1,2.3.5,1.4-1.2v2l1.6,1.7,7,1.8,5.3,4.7,5.2.3,4.7-2.3,2.5-.2,1-1.8.7-2.1-4.6-4.5v-4.8l-.5-2.1,2.3-.6,2.8-3,2.5.5,1.8,1.3.9.2,1.8-2.9,1.4-1.4.9-2.2Z" style="fill:#efa;stroke:#000;stroke-miterlimit:10"/><path id="f94d9563-fd62-4047-8f0b-b22a2862141a" data-name="Yilan" d="M666.5,271l-.5,1.1-1.6.5-3.5.3-1.3.7-1.8,2.4-.6,5.1-2.3,3-.4,1.5-.6,1.3-.4,1.5-3.4,5.3-.2,1.6h-1.8l-1.4.7-1.1.9-.4.7-.9.9v.6l1.2.8.6,1.4v1.8l.5,1.3-1.2,1.2-.5.2-.5.8-1.3.7-1.4,1.6-.4,1.6.7,1.3v7.3l-.8,1.8-1.1,1.4-1.4,1-1.6,2.5-1.8,1.4-.5,1.2h-1.4l-3.4,4.9-1.3.8-1.9-.4-1.4,2.8-1.3.8-1.2,2.9-.9,1.1-1.5,1.3-1.2,2.5v1.5l-.7,1.1,1.4,1.7.9,1.7.5,2.2-.9,7.1,2.7,2.7,2,.7h4.8l4.1,7,1.8.9,2.7-.4,1.2-1.6,1.6-1.2,2.4-.4,1.7-.9,7.2-.9,2.1,1.1,1.1,1.8,1.6,1,1.3,2.2,12,7.7h8.1l3,1.2,4.1.5,8,5.6,8.4,1,3-.8-3-2.5.7-3,3.3-.8,2.3-1.5,2.3,1,2-1.8-.8-1.5-2-1.7.2-3.3,2.1-.8,4.3,3.8,4.8,1.5,4.5,3.6,9.1,3.8,7.3.5,8.1,4,4.1.5-.2-4-.7-1.3v-3.7l2.5-4.8.4-1.5,1.5-2.5.5-10.9.5-1.6.9-1.2v-2.1l1-3.5,1.8-2.4.5-1.8,2.6-1.6,1-1.2,1.3-2.6v-1.8l4.6-4.3,4.5-1.9h1.9l.5-.2-1.4-.8-1-1-.7-1.2v-2l-2.6-1.5-.5-4.9,1.8-1.1.9-1.3,3.3-.6,2.7-1.8,1.7-.3.5-1.7v-1.5l-.7-1.8v-1.8l-.7-1.1-.3-3.5.8-1.1-.9-1.4.6-1.5h1.9l-.3-1.5-1-.8-.2-.5,1.5-.7-1.3.3-1.7-.7-.2-1.2-2.4-2.2.4-1.6h1.8l1.5.9.3,1.7h1.7l1.5-.8-3.6-3.6-3-1-.4-.8h-.5l-1.7-2.3v-1.3l-3.7-9.1v-3.7l-.8-1.2.4-.6v-2l-.5-1.7.5-10.2-2.9-3.1-.9-1.5v-1.7l-1.3-1.6-.7-3.4.2-1.8-1.1-1,.5-14,.7-2.2v-1.9l1.2-2.8-.2-3.6,1-3v-1.8l2.4-5.2.3-1.8,1.2-2.1,1.5-.8,1-2.9,1-1.1,1.3-.5,3.8-4.4,1.3-.7,3.1-3.6.3-3.5.5-1.6,2.8-1.6,1.5-.4,1.5-2.1,1.2-1,1.2-.6,2.5-3.5.3-1.9,1.7-1,1.8-.2,1.3-.6,1.1-1.1,1.7-.2,1.2-.8h1.9l2.7-1.3-3.6-.7-2.5.2-6.3,2.3-5.3.4-6.8,4.8-1.4,1.6h-2.9l-2.3-.9-5.2-.3-1.8,1.4-.5,2.1-.9,1.8,4.1,5.9-1.4,4.3-5.9,3.9-5.4-.3-2.3.3-3,2.5-2.5,3.2.5,2.4-.2,2.1-1.4,1.8-.2,2.1.2,1.3-2.5.5-1.8.9-7.5-1.1-2.3.4-2,1.1-2.7,3.2-4.8,2.6-.5,1.7-1.8,1.6-1.1,1.8-2.1.7-.7,1.9-1.6-1.7-3.6,1.7-10.5,1.3,1.4,1.2-.5,2.2-2.4,1.8-2.5-.7-1.8,1-2.1.6-.9,1.9.2,2.5-.4,2.3-1.9,1.6.3,2.5,1.5,1.5.7,2.1v2.7l-1.5,4.3-2.3.3-1.6,1.3-1.1,1.6-2.1.7-2.7.2-5.9,3.2-.5,2.5-5.2,3.4-4.6.7-2.4,1.4-5.1-.2Z" style="fill:#efa;stroke:#000;stroke-miterlimit:10"/><path id="a364184d-36ec-4666-88d8-9cfee84a993d" data-name="Taoyuan" d="M666.6,270.9l-.6,1.2-1.6.5-3.5.3-1.3.7-1.8,2.4-.6,5.1-2.3,3-.4,1.5-.6,1.3-.4,1.5-3.4,5.3-.2,1.6h-1.8l-1.4.7-1.1.9-1.5,1.9-.8.5-1.8.3-3.6-.5-1.5-.9-1.3-1.8h-.9l-.7-1.1-.6-1.5-1.3-.5v-3.9l.7-1.4.4-1.8-1.5-.7-1.7-.3-1.2-.7-.2-3.8,1.1-1v-1.9l.5-1.5-.3-1.9-1.6-.8H626l-.6-1.2-.3-1.8-.7-1.3-1.2-.9-2.3-2.9-2.9-1.4-3,1.1-1.4-.5v-3.8l1.2-1.2.6-1.2v-3.8l-2.2-.4.2-4.4.5-1.4.9-1.3.3-1.6-1.2-1.3-.7-1.5-1.7-.4-1.3-1.2-1.4-.5-1.7-.2-.5-.7h-.3l-1.6-.9-1.1-1.3-1.5-.9-.3-.6-.2-1.1-.9-2.4-1.5-.7-2.1-.3v-1.9l-1.5-.5-3.9,1.7H590l-5.7-4.5-1.4-.6-1.1-1.2-2-.7v-1.4l-1.9-.3-1.8-.6-3.5-2.8-.7-.9-3-1.9.4-1.6,1.8-2.8-.5-5.5-1.4-1.1-11.8-1-.7-1.5-.3-1.9,1-.9L556,199l-1.2.9-1.7.6h-1.9l-1.6-1.2-2-.7h-1.9l-1.3-1.4-3-1.1v-3.7l.6-1.5-1.1-3v-1.8h-1.8l-2.1-2.2-3.7-.2L529,185l-2.3-1.6-4.3,2.6-3.1-.9.5-.8,1.3-1,3-4,.6-1.4,1.3-1.3,1.2-.7L529,174v-3.7l-.9-1.2v-1.8l3.1-3.8,1-2.9,1.1-.9,2.4-3.5,4.7-4.1,3.9-1.7,1.7-.3,1.1-1.1,1.5-.5,2.5-1.7,1.3-1.4,1.6-1,1.8-.5,2.8-2.1,1.5-.6h2l12.1-3.2,1.6-1.3,3.5-1.6,3.6-3.7,1.7-1h2.1l8.4-3.4h1.9l1-1,3.5-.8,1.5.5,2.5,2H608l.8,1.9L610,131l1.3.4,1.2,1.6,5,.5,9.3,4.5-.5,3.5,1.9,1.8,5.2,1.3h5.4l1.2.9,1.8,2.1.6,2.3v.7l-.9,1.8.3,2.4,1.3,1.4,2.3,1.6-.9,1.6-2,1.2-1.9.8,2.1,1.6.2,2.1-1.6,1.1-2.2.7-1.9,3.6-2.9,1.9-11.2-.3-1.8.9-.6,2.1,1.1,2-.5,5-1.5,1.4-.8,2,1.2,2.3,2.1.2,1.7,1.2-2.2,1.5-1.2,1.4-.9,1.9.9,4.3L625,201l3.4,5.2-1.2,1.6.3,2.1,2.7,1.8-1.6,1.3-4.6.9-.2,2.1,2.5.4,1.6-1.3,1.6,1.6,1.8,1.1,2.8.7,2.7-.2,2-1,5.3-.4,1.3.7.3.9,1.5,1.4.7,2,2.8,2.9,1.6.9,1.6,1.7.2,2.5.9,2.5,2.3.8v2.6l-1.6,1.1-1,1.6-3.2,2.7-1.1,2,.3,2.3.9,1.8v1l2,5,3.2,3.1-.5,1.9,2.5,1.1.2,1.8,2.5.7,1.4,2,1.9,1.4.6,5,1.2.6Z" style="fill:#efa;stroke:#000;stroke-miterlimit:10"/><path id="e4f1e151-5639-4c45-91cc-6baa83bdb837" data-name="Hsinchus" d="M488.8,251.1l.2,1.1,1.3.6h2l1.4-.5,1.1-.9,1.4.5,1.9,2.3.5,1.6v1.5l4.9,1.3.7-.5,2-2.4.4-3.7,1.2-2.9,1.7-.3,1-1.6,1.5-.6,1.1-.9.5-1.5.9-1.4,5.5-1.2-.5-1.4,1.1-1.8,1.5-.5H524l7.1,7.2,1.5-1v-3.8l-3.3-11.1-1.9-2.7-3.4-2.9-3.7-.4v-.6l-.5-1-1.4-.9h-1.9l-7.7-1.9-1.9-2.6-.5-1.4-1.6-1.2-1,.8-1.5.6-5.1,7-1.3,1.1.7,3-.3,1,.5.6h1.9l.3,1.6-.8,1.6-.4,3.5-.7,1.1-.2,3.9L495,242l-.5,1.6,1.3,1.1-.7,1-.6,1.8-2.3,2.1-1.8,1-1.6.5Z" style="fill:#efa;stroke:#000;stroke-miterlimit:10"/><path id="aca581ab-2078-415c-931f-eb51cb5b7684" data-name="Hsinchu" d="M618.7,347.6l-1.7.9-.6,1.4-1.2.7h-5.9l-1.2.7-5.7-.2-.9-1v-2.1l.2-1.3-.6-.7v-3.8l-.9-1.3-1.5-.9-1.1-1.2-.7-1.6-2.1-2.4-.6-1.5-1.6-.7-.7-1.2-1.7-.9-.5-1.2.3-2.9-1.1-1.5-3.7-.3-1.5.5-2.7,1.8h-4.3l-1.4.7h-1.8l-1.3-1.1-7.6-.4-1.4.5-1.5-.4h-1.9l-2.1,1.9-3.4,1.4-3.5-.7h-5.9v-2.2l-.9-1.9v-2l.8-1.5,2.1-2.3.5-1.5v-1.9l-1.5-2.9-2.7-2.1,2.1-3.3,1.1-4.2,1.1-1.4.2-1.7.9-1.3.3-1.6-1.4-.8-1.1-3.4-1.9-.5-1.4-3.2-.9-.4-2,.5-1.5.9-2.4-1.9-.9-1.5-1.6-.4-1.3-.8-2-3.2-1.8-.3-1.8-.7v-1.8l-1.1-1.2-1.8-.3-3.3-2.1-.8-1.6-1.4-1.3-1.7-2.9-.2-1.8-2.1-.8.4-1.2.9-1.4.3-1.7,1-1.2-1.4-.8.9-1.1-3.6.2-1.2,1-1.5.7-.9-1.2h-2.9l-1.6-.7-.9-1.2,2.5-3.1.3-3.7,1.3-2.9,1.6-.4,1.1-1.5,1.5-.6,1.1-.9.5-1.5.9-1.4,5.4-1.3-.5-1.4,1.2-1.7,1.5-.5H524l7,7.2,1.6-1v-3.8l-3.3-11.1-1.9-2.7-3.4-2.9-3.7-.4v-.6l-.5-1-1.4-.9h-1.9l-7.7-1.9-1.9-2.6-.5-1.4-1.6-1.3.6-1.5,2-2.5.5-1.8,1-.9.6-3.4,5.6-6.9-.7-1.6-.4-1.9,5.5-7.9,3.1.9,4.3-2.6L529,185l4.3-1.3,3.7.3,2.1,2.1h1.8V188l1.2,3-.7,1.5v3.7l3,1.1,1.3,1.4h1.9l2,.7,1.7,1.2h1.8l1.7-.6,1.3-.9,1.3.7-1,.9.3,1.9.7,1.5,11.8,1,1.4,1.1.5,5.5-1.8,2.8-.4,1.6,3.1,1.9.6.9,3.5,2.8,1.8.6,1.9.3v1.4l2,.7,8.2,6.3h1.7l3.9-1.7,1.5.5v1.9l2.1.3,1.6.7.8,2.4.2,1.1.3.6,1.6.9,1,1.3,1.6.9h.3l.5.7,1.7.2,1.4.5,1.3,1.2,1.8.4.6,1.5,1.3,1.3-.4,1.6-.9,1.3-.5,1.4v4.4l2.1.4v3.8l-.6,1.2-1.2,1.2v3.8l1.4.5,3.1-1.1,2.9,1.4,2.2,2.9,1.2.9.7,1.3.3,1.8.6,1.2h1.9l1.7.8.2,1.9-.5,1.5v1.9l-1,1v3.8l1.3.7,1.6.3,1.5.8-.4,1.7-.7,1.4v3.9l1.4.5.5,1.5.7,1.1h.9l1.3,1.9,1.5.8,3.6.5,2.7-.7,1.4,1,.6,1.4v1.8l.6,1.3-1.3,1.2-.5.2-.5.8-1.3.7-1.4,1.6-.4,1.6.7,1.3v7.3l-.8,1.8-1.1,1.4-1.4,1-1.6,2.5-1.8,1.4-.5,1.2h-1.4l-3.4,4.9-1.3.8-1.9-.4-1.3,2.8-1.4.8-1.2,2.9-.9,1.1-1.5,1.3-1.2,2.5-.2,1.7-.7.9" style="fill:#efa;stroke:#000;stroke-miterlimit:10"/><path id="badaf186-9d52-4286-a90c-8af73f82297b" data-name="Miaoli" d="M504.7,260l1.5.7h2.9l.9,1.2,1.5-.6,1.3-1.1,3.5-.2-.9,1.1,1.4.8-1,1.2-.3,1.7-.9,1.4-.3,1.2,2,.8.2,1.8,1.7,2.9,1.4,1.4.9,1.5,3.2,2.1,1.8.3,1.1,1.2.2,1.8,1.7.8,1.8.2,2,3.2,1.3.9,1.6.3.9,1.6,2.4,1.8,1.5-.8,2.1-.5.8.3,1.4,3.2,1.9.5,1.2,3.4,1.3.8-.3,1.6-.9,1.3v1.7l-1.2,1.4-1.1,4.2-2,3.3,2.6,2.1,1.5,2.9.2,1.9-.5,1.5-2.2,2.3-.8,1.5v2l.9,1.9v2.2h6l3.4.7,3.4-1.3,2.1-1.9h1.9l1.5.3,1.4-.5,7.6.4,1.3,1.2h1.9l1.4-.8H581l2.6-1.8,1.5-.5,3.7.3,1.1,1.5-.2,2.9.5,1.3,1.6.8.8,1.2,1.5.7.6,1.6,2.2,2.3.6,1.6,1.1,1.2,1.5.9.9,1.3v3.8l.7.7-.3,1.3v3.9l-1.8.8-1.9,1.7-1.5,1.7v2.5l-3.4,5.6v2.7l-2.2.5h-2.7l-1.7-2.5.8-1.4-2.6-1.1-2,.9-.7,2.1-1.3,1.8-2.3.7-4.8,6.8-2,.7H566l-1.8,1.3-.7,1.9-.7.2-2,2.2-.4,2.5-2.1.5-3.4,2.9-2.1.5-5-.5-4.5,1.6-5.4,6.7-2.6.2-2-1-3.2-3.1-.4-2.5-1.8-1.2-2.6-4-1.6.4H521l-2-.9-5-.4-6.1-2.1-4.8-.2-2.1.9-1.5,1.4v2.7l.9,2,.4,5-.9,2-1.8,1.4-2.1.7-10.4-.4-2,.9h-5.3l-5.2-1.6-3.2-3-1.1-2-1.6-1.2L456,386.9l-3.4-2.8-2.5-.7-1.5-2-3.5-2-1.5-1.6-2.1-.7-1.2-1.6-.9-.3-3.1-.4-1.2-1.8-3.2-2.1-7.5-9.7H424l-.9-1.8-4.5-1.7-2.3-3.8-.3-2-3.8-4.7,1.6-.7,3.8-3.1,3-4,.6-1.4,5.2-6.8,1.3-3.1,1.4-1.9,9.4-28.2,2.3-2.9v-.7l1.2-1.3,3.1-.8,2.7,2.3,1.1,1.7.4-1.6-.4-2,2.7-1.6H453l1.1.2-.2-1.6-1.6-.8-1.5-1.1,1-.9.6-3.3,3-5.3,1.7-.2,2-2.4,5.6-.3,4.4-2h2.4l3.9,1.4,1,1,2.3.5,1.2-.8-.7-1-1.9-.2-1.5-.7L475,272l-1.8-.2.2-1.8,1-1.1,1.5-.8,5.5-4.7.6-1.6.8-1.2.4-1.5v-1.9l1.3-2.7,1.2-1.2.9-1.3,2-.8.4,1,1.3.6h2l1.4-.5,1.1-.9,1.4.5,1.9,2.3.5,1.6v1.6l4.1,1.1,2,1.5Z" style="fill:#efa;stroke:#000;stroke-miterlimit:10"/><path id="b7b4a84c-4740-4ebb-902c-106f82dee6d4" data-name="Changhua" d="M301.2,545.1l6.4,2.3,3.7.2,5.9,1.8,16.1-.8,2.8-1,14.6.3,2.6-1.3,5,2.8.8,1.3,4.3.5,8.1,4,6.3,1.5,7.3-.2,3-.8,30.6,5.1,5.8-1.8,2-1.8,1.3-2.5v-3.3l-2.1-.5-2.5,1.3h-3.3l-2.5-1.3-7.3-7.8.2-2.3,1.3-2.5-1.8-2,1.6-2.6.5-3.2,1.2-2.6,1.3-9.6-.5-2.7.5-2.3-1-5.6,1.5-2.2,2-1.8,1.3-2.5.2-3.6-1.2-2.7-1.8-2.1-.5-.2.2-3.8h7.6l4-2.3-5.7-4.8-1.1.8-3.6.3-1.6-1.4-2.5-.2-1.4-7,.9-1.9v-2.9l-1.8-1.4-1.6-2.2v-5.3l-.4-.9-1.6-1.3h-2.5l-7.5-2.1-2.7-.2-1.9-1-2.2-.6-1.6-1.2-1.9-.9-1.5-2.3H384l-1.8-1.3-1.2-1.6v-2.5l1.3-1.6-3.2-3.4-.4-2.7-1.1-2.7-.3-2.3-2.2-3.4-4.4-1.9-1.5.3.5,1.5.7.9-1.6.8-3.2,4.1v.2l-2.7,4.2-1.3.8h-5.5l.2,1.5,1.6,1.3-.2,3.7-1,.9-.6,1.3-.4,1.8-.9,1.3v4.2l-1,1.5v1.9l.6,1.2L354,462l-1.3,1.3-3.1,1.1-.7,1.8-2.3,2.4-.3,3.5-.6,1.4-2.6.5-1.4,1.1-1.7.3-2.4,1.8-1.4.5-.3,1.6-4.1,3-.7,3.1v2.1l-.9,1.5-.3,1.7-1.2.8-.7,3.3-2.4.2-1.9-.4-1.4,1.1-1,4.9.4,1.2h3.8v.9l-4.8,7.2-.2-.2-.4,2.1-.9,1.1-.4,1.5-1,1-1.3,4.8-2.1,2.4-.5,1.8L312,527l-.6,1.5-.9,1-.3,2.2-1.2.7-1.2,1-1.4.7-.8,1.3-1.4.7v1.4l.9,1.3-.7.5h-1.9l-.8,1.2-.3,3.7-.4,1" style="fill:#efa;stroke:#000;stroke-miterlimit:10"/><path id="e4437efa-3ec2-4f5f-aa24-de04a5842908" data-name="Taichung" d="M370.8,426.6l4.4,1.9,2.2,3.4.3,2.3,1.1,2.7.4,2.7,3.2,3.4-1.3,1.6v2.5l1.2,1.6L384,450h.5l1.5,2.3,1.9.9,1.6,1.2,2.2.6,1.9,1,10.2,2.3h2.5l1.6,1.3.4.9v5.3l1.6,2.2,1.8,1.4v2.9l-.9,1.9,1.4,7,2.5.2,1.6,1.4,3.6-.3,1-.8,5.8,4.9,8.9,3.2,2.1-.6h5.4l2.5.6,1.8,1.6,2.1-.2,4.3-1.4,6.4-7L464,473l3.2-3.2,4.5-1.3,1.2-1.6-.3-6.6,3.7-7.5,1.6-1.1,2.3.8,1.1,1.6,4.7.9,1.6,1.4v5.3l1,.6.7-1.6,1.5-1.3.9-1.8,1-4.3,1.6,1.5.4.5,2.9,1.4,2.5.4,2.5-.5,6-5.2,2.3-.4,1.5,1.3,2.3.5,5.2-.2,1.8-1,2.6-2.7,2-6.3,1.4-1.4,2.5-.5,4.3.5,1.6-1.1h4.1l4-1.9,1.2-2,2-1.2,1.2-1.7,1.8-1,1.3-2,.5-2.1,1.8-.9,10.5-.2,1.4-1.3,1.3-1.9.7-2,2.5-.2,1.3-1.6,1.6-1,1.9.9,1.3,1.4,4.3,1.2.9-1.8,1.7-1h2.7l4.1-1.8,1.6,1.1,2.5.9,2-.8,1.3-2.1.5-2.1,2.3-3.8h.9l3.2,2.3,1.1,1.6,4.6,1.1h2.7l1.1-1.6,4.8.5,1.3,1.3,6.4,1.8,1.8-1.5.9-1.7-.2-2.5,3.7-1.7,1.1-1.6,2.7.2,1.4-1.2.5-2.4-.8-4.6,1.2-2,2.3-.9,1.6-1,1.8-4.1,1.4-1.6h2.7l1.8-1.3,1.4-1.8,2.2-4.3.7-7.3.9-1.9,2.3-1.3,1.3-1.5-1.3-2.1-1.6-1-1.1-1.8-2.1-1.1-7.2.9-1.7.9-2.4.4-1.6,1.2-1.2,1.6-2.7.4-1.8-.9-4.1-7h-4.8l-2-.7-2.7-2.7.9-7.1-.5-2.2-.9-1.8-1.2-1.4-.4-.2-1.8.9-.6,1.4-1.3.7h-5.8l-1.2.7-6.5-.3v.8l-1.8.9-2,1.6-1.4,1.8-.2,2.5-3.4,5.6v2.6l-2.1.6h-2.7l-1.8-2.5.9-1.5-2.7-1-1.9.9-.7,2.1-1.3,1.8-2.3.7-4.8,6.8-2,.7h-5.4l-1.7,1.3-.8,1.9-.7.2-1.9,2.2-.4,2.5-2.1.5-3.4,2.8-2.2.6-5-.6-4.4,1.6-5.4,6.8-2.7.2-1.9-1.1-3.3-3-.3-2.5-1.8-1.2-2.7-4-1.6.4h-2.7L519,383l-5-.4-6.1-2.1-4.8-.2-2.2.9-1.4,1.4v2.7l.9,2,.4,5-.9,1.9-1.8,1.5-2.2.7-10.3-.4-2,.9h-5.3l-5.2-1.6-3.2-3-1.1-2-1.6-1.2-11.3-2.2-3.4-2.8-2.5-.7-1.4-2-3.6-2-1.4-1.6-2.1-.7-1.3-1.6-.9-.4-3-.3L435,373l-3.2-2.1-7.5-9.7H424l-.9-1.8-4.5-1.8-2.3-3.7-.4-2-3.6-4.7-1.7.4-.3,2.3-9,12.6-2,4.7.3,3.8v.5l-1.3,1.6-.5,1.4-2.8,1.3-1,1.8-4.6,3.1v1.4l.5,1.1v2.2l-.9,1-2.4-.8,2.8,1.3.5,1.2-1,1.5-.9.7-2.3-2.9-.9.5-1.1,1.2-2.1,1.2v1.8l-.8,1.2-2.7,1.7-.9,1.4,4.1,5.7v1.6l-.9,1.3-.3,1.5-1.1-1.9.2-1.7-1.5,1.7-1.5-.2-.4-1.8.9-1.8-.2-1.8-1.2,1.3-2.3,6.4,1.6,1.3.7,1.4.6.5v-.3l1.8,1.1v1.9l-.6,1.6-3.9,5.6-1.2.9-1.5,3.8v2.1Z" style="fill:#efa;stroke:#000;stroke-miterlimit:10"/><path id="efb96d30-5937-4117-af8b-c90257cc8709" data-name="Yunlin" d="M442.7,618.6v-3l-2.3-2.1-3.3-.5-1,2.8-2.8.5-3.3-.7-.7,3-3,.5-3.6-.3-2.2-1.5-1.6-2.7-.7-3.1-4.8,3.6-.3-7.4,2-5.8.3-.2,1.8-4.1.5-3.3-.3-3.5-1.5-2.5-.2-7.3.7-3.1,2.8.5.5-7-5.1-10.9-20.7-3-3.8-1.5-2-.3-10.3,1-14.4-5.5-4.3-.5-.8-1.3-5-2.8-2.6,1.3-14.6-.3-7.6,2.1-11.3-.3-5.8-1.8-3.8-.2-6.5-2.2h-3.9l-1.2-.6-1.4-.3-.5,1.6h-1.8l-6.1,10.8v.7H284l-1.3.7-2,2.4-.6,1.6-.3,3.8-1,1.2-.3,1.6,1.7,2.4-.3,1.8-1.6,2.4h-3.2l-.4,1.5v1.9l-2.1,1.2v2.2l-.5.3-.4,1.6V586l.5,1.4H274l1.4,2-2.3,2.8-1.4,2.8-.4,1.5-1.9,3.2-1,3.5-1.3,1.9-2.6,7.4.3,7.5-.4,1.5V623l1.8.9-.2,1.6-1.5.7-2.1,1.6.5,2.2,1.1.6,1.5.2.2,1.9-1,1.3v3.8l1.2.9,2.1,2.7,1.3,1.2-1.2.7-.9,1.7h-1.8l-.5-1.4-1-.9-1.5.9-2.2,2.5,3.8.2,5.8,2.2h3.8l1.5,2.3H279l2.8-1.3,6.3,2.3,3.8.5,2.3-1.7,1.8-2.3.2-3.6-.8-3,2.1-2h3.3v3.3l3.5,1.2,1-2.7,4.8-2.8.8-3.5,1.7-2.1,6.3-2.5,2.8,1.5,1.8-6,1.5-2.6,4,.3,2.6-1.3,1-3,5.8-1.8,1-2.8,2.3-1.7,1.7-2.3,2.8,1.3,2.3,1.7,2.8,1.1,5.8-2.3h7.5l5.3-2.8,5.1,1.3,1.5,5,4.3,3.6,1.5,2.2,2.5,1.5,3.6.3,2.3,1.8,3,1,13.9,1.5,2.8-1.5,1.7-2.1,5.6.3-.5,3.8,2,3.3,2-2,3.3-.8,2,2,3-.2,2.8-1,3.6.2,2.7,1.5,3.6.5,1.2-2.5v-3.5l-.7-3.1-1.5-2.2,1.5-2.3Z" style="fill:#efa;stroke:#000;stroke-miterlimit:10"/><path id="aa7cf6f4-4c8c-40ab-8634-0942e57eae8b" data-name="Hualien" d="M672,677.6l-3.3-.9-2.3-1.8-3-.7h-3.8l-2.8,1-4.3,3.5-7.3,13.1-.2.3.5,4.5,2,2.3,3.3,1.8v.2l-12.2,18.5-.5,8.8-1.7,2.3-2.3,1.5-1.3,2.5-1.5,6.1-2.3,1.7v3.8l-1.5,2.8-.2,2.8-3.1,5.8L620,761l-1.1,2.8.8,3.5v11.4l-1,2.8-9.9,1.5-2.5,1.8-2-.3L604,781l-1.7-3.3-2-1.8-4.6-.2-1-.8-1.8-2.3-3-1-2.5-1.5v-2.8l-3.8-5.3v-4.3l-1.3-2.7-1.7-2.3-5.1-3.3-5.3,2.5-.5,1.3h-1l-2.8-1.3-1.3-2.5-3.5-4-3.5-.3-5.3-3.3H548l-1.3-2.5-.7-.7-3.8-9.1.2-3.8-3.8-4.8-.7-2.6.7-3-.2-3.5L523,701.2l-3.1-.8,1.1-3.5,1.7-2.5,3.3-1.1-.5-2.2,1.5-2.3,3.3-.5,1.5-2.3v-7l-2.3-1.6-.5-1.6,1.3-1.1,3-.8,3.1-2,3-.8.8-3.5-1.1-3-2.2-1.8,1.7-2,.8-3.3,2-2.3,2.3-1.5.7-3,2.3-1.5,3.6.2,2.7-1.3h3.8l1.3-.5,2.5,1.6,3,.7,4.8-4v-7.6l.8-3,2.3-1.6-2.3-6.3,2.5-1.2,3.8,1,2.8-1.3,1.5-2.3,3.3-1.5,4.5-.2,3.8-8.4,1.3-10.3,1.2-2.5v-3.8l2.1-5.6V582l-2.6-2.3-.2-3.5.7-2.8-8-5.8.2-3.6,3.3-.7,3-2.3v-1.5l-.7-3,.5-3.6,2.2-1.5,1.1-3.3.2-3.7,1-3.1,2-2.5.3-3.8,2.3-2.3,3-.7-.5-5.6-1.8-3,4.3-3.8-.2-3-1-3.3v-3.8l.7-2v-7.6l-2-2.5-1-.3v-3.5l6-12.9.3-7.3,2.3-2.3,2.5-1.2,1.5-2.6,2.5-1.2,2.1-3.6.7-2.5.3-3.5-1.6-2.3-3.5-.5-1-2.8-1.8-2-3.8-1.3-.7-1-.3-6.3,2.8-6.6,3-.7,2.1-1.8,2.7-1.2,3.8-3.8h3.8l1.5-2.3-1.7-5.6,2-1.6.9-1.7-.2-2.5,3.7-1.6,1.1-1.6h2.7l1.4-1.2.6-2.3-.9-4.7,1.2-1.9,2.3-.9,1.6-1.1,1.8-4.1,1.5-1.6h2.6l1.8-1.3,1.4-1.8,2.2-4.2.7-7.4.9-1.9,2.3-1.3,1.3-1.4,12,7.7h8.1l3,1.2,4.1.5,8,5.6,8.4,1,3-.8-3-2.5.7-3,3.3-.8,2.3-1.5,2.3,1,2-1.8-.8-1.5-2-1.7.3-3.3,2-.8,4.3,3.8,4.8,1.5,4.5,3.6,9.1,3.8,7.3.5,8.1,4,4.2.5-.2,1.3-.6,1.2-1.5.7L752,394l-2.2,2-2.7,3.9v5.6l-1.2.8-1.1,2.7-1.5.6-.8,1.9-.2.2-3.6.3-3,5.5-1.2,1-1.7.2-3.3,2.9-1.5.4-.9,1.1-1.2.8-3.9,5.3-1.1,3.3v5.7l2.4,4.3-.7.7-.5,5.2-.3.5-.3-.2-1.4,2.4-1.4.5-3.2,3.7-1.6.8-4.3,4.7-.6,1.4V474l.6,1.3.5,3.3,7.2,7.4v1.9l-1,3.4-1.4-.4-.4,1.7.7,1.2-1.6.5-1.1,2.6h1.6l-.7,3h-1.9l-.8-1.1h-1.5l-1,.9-.6,1.6-1.1,1.2-1.1,3,1.4,3,.2,5.6-1,3.4-.2,5.3-.5,1.6v5.6l-.7,1.2-.3,3.4-1.9,4.4v1.8l-.7,1.4-.2,1.7-1.9,3.9-.3,1.8-3.2,4.8-.7,2.1v10.5l.5,1.4-1.3,6.4-3.6,5.4-1.6,1.2v1.8l-.7,1.3v1.8l.9.6.7,2.6-.8,1.1-.3,1.6-.6,1.3-.9,6.9-.9,1.1v1.2l.8,1.2-1,1.1-1.5.6-.5,3.4-1.3,1.6v12.7l-.9,1.8v3.9l-.9,3-1.4,1.3-.4,1.6-1.6,2.4-.2,1.9-1.2,3.3v3.6l-.9,1.5-.3,2.1.5.4.7,1.6v3.8l1.6,2.5v3.7l-.5,1.5-1,1.1-1.5.7H673l.4.5,1.6,1-.8,1.5v1.9l-.8,3.3v1.9l-.7,1.5-.7.8Z" style="fill:#efa;stroke:#000;stroke-miterlimit:10"/><path id="b2c75a52-e17b-4601-9c68-b2c277d0abc4" data-name="Nantou" d="M414.6,560.5l5.1,10.9-.5,7-2.8-.5-.8,3.1.3,7.3,1.5,2.5.3,3.5-1.5,6.1-.8,1.3-.3.2-2,5.8.3,7.4,4.8-3.6.7,3.1,1.5,2.7,2.3,1.5,3.6.3,3-.5.7-3,3.3.7,2.8-.5,1-2.8,3.3.5,2.3,2.1v3l6.4-.8,11.7,4.3h3.7l3.3.8,1.3,2.5.2,8.6-.7,3.3-2.8,2.3v3.7l1.5,2.6,2.3,2,.5,7.3,2.5,5.8,2,2.3,11.4,1.3,5.6-2.3,11.1,1,2.7,1,11.9.8,6.3,2.2h.5l2.6,1.8,1.2,6.3,1,.5,1.3-1.2,3-.8,3.1-2,3-.8.7-3.5-1-3-2.2-1.8,1.7-2,.8-3.3,2-2.3,2.3-1.5.7-3,2.3-1.6,3.5.3,2.8-1.3h3.8l1.3-.5,2.5,1.5,3,.8,4.8-4v-7.6l.8-3,2.3-1.6-2.3-6.3,2.5-1.2,3.8,1,2.8-1.3,1.5-2.3,3.3-1.5,4.5-.2,3.8-8.4,1.3-10.3,1.2-2.5v-3.8l2.1-5.6V582l-2.6-2.3-.2-3.5.7-2.8-8-5.8.2-3.6,3.3-.7,3-2.3v-1.5l-.7-3,.5-3.6,2.2-1.5,1.1-3.3.2-3.8,1-3,2-2.5.3-3.8,2.3-2.3,3-.7-.5-5.6-1.8-3,4.3-3.8-.2-3-1.1-3.3v-3.8l.8-2v-7.6l-2-2.5-1-.3v-3.5l6-12.9.3-7.3,2.3-2.3,2.5-1.2,1.5-2.6,2.5-1.2,2-3.6.8-2.5.3-3.5-1.6-2.3-3.5-.5-1-2.8-1.8-2-3.8-1.3-.7-1-.3-6.3,2.8-6.6,3-.7,2.1-1.8,2.7-1.2,3.8-3.8h3.8l1.5-2.3-1.7-5.6-1.4-.8-4.8-1.1-1.3-1.3-4.8-.5-1.1,1.6-5.2-.3-2.1-.8-1.1-1.6-3.2-2.3h-.9l-2.3,3.8-.5,2.1-1.3,2.1-2,.8-2.5-.9-1.6-1.1-4.1,1.8h-2.7l-1.7,1.1-.9,1.7-4.3-1.2-1.3-1.4-1.9-.9-1.6,1-1.3,1.6-2.5.2-.7,2-1.3,2-1.4,1.2-10.5.2-1.8.9-.5,2.1-1.3,2-1.8,1.1-1.2,1.6-2,1.2-1.2,2-4,1.9h-4.1l-1.6,1.1-4.3-.5-2.5.5-1.4,1.4-2,6.3-2.6,2.7-1.8,1-5.2.2-2.3-.5-1.5-1.3-2.3.4-6,5.2-2.5.5-2.5-.4-2.9-1.4-.4-.5-1.6-1.4-1,4.2-.9,1.8-1.5,1.3-.7,1.6-1-.6v-5.3L486,455l-4.7-.9-1.1-1.6-2.3-.8-1.6,1.1-3.7,7.5.3,6.6-1.2,1.6-4.5,1.3L464,473l-3.8,9.8-6.4,7-4.3,1.4-2.1.2-1.8-1.6-2.5-.6h-5.4l-2.1.6-9-3.3-3.9,2.3h-7.6l-.2,3.8.5.2,1.8,2.1,1.2,2.7-.2,3.6-1.3,2.5-2,1.8-1.5,2.2,1,5.6-.5,2.3.5,2.7-1.3,9.6-1.2,2.6-.5,3.2-1.6,2.6,1.8,2-1.3,2.5-.2,2.3,7.3,7.8,2.5,1.3h3.3l2.5-1.3,2.1.5v3.3l-1.3,2.5-2,1.8-5.8,1.8-4.1-.3Z" style="fill:#efa;stroke:#000;stroke-miterlimit:10"/><path id="f50c5554-2858-44de-9656-bde0685cf8ad" data-name="Taitung" d="M671.9,677.7l-2.2,6.8v1.9l-1.4.9-1.8,6.9V700l-1.8,3.8.2,5.6-1.2,5.5-1.5,1.1h-1.9l-1.5.3-1.2,1-1.2,3.2-.7,1.2-1.4,1.3-.6,1.4-.2,1.7-1.1,1.1-.4,4-1,1.3-2.4,9.7.9,1.1.5,1.4-.8,1.3-1.5,1.1-1.4-.2-.9-1.4-1.1.5,1,1v1.4l-2.9,2,.3,8,1.9,3.7.4,1.8-.3,3.7-1.4,1.4v5.4l3.1,3.1-.9,3h-3.7l-1.2,1-2.2,4.2-1.3.6h-3.7l-.9,1.2-1.4.7v1.9l-.8,1.3v1.9l-2,2.9-1.4,4.9-1,1.4-.9,5.7L624,810l-.3,1.6-1.1.8-1,1.1-1,3-1,1.6-1.3,5-.7.9-.5,1.5v1.9l-3.3,3.5-.5,1.3-1.8.2-1.1,1-.9,1.5-.7.2-.2,3.2-3.4,7.4-2.2,2.1-2.1,4.4-.6,3.1-1.2,1.1-1.5.3-2.4,2.6v3l-3.2-.8-1.4.5-3.4.5-5.8,4.8-.7,1.2-.3,1.6.6,1.3,1.8,2,.4,1.3h-1.9l-.8,1.2.7,1.3,1.2.6,1,1.1-.3,1.8,1.1,2.8-.5,1.6-2.1,1.9-1.7.3-1.4,1.4-1.2,7.9-2.2,2-2.7,1.2-1.2,1-.8,1.2-2.5,2.1-.7,1.1-1.2.8-1.5.6-3.8,4.5-2.6,1.6-1.6.3-1,.9-1.3.6-1.9.3-1,1h-1.8l-.9,1.2-2.4,1.4-1,1-2.7,1.2-.3,1.6-1,1.2h-1.8l-1.1,1.1-4.1,1.7-1.1,1-1.7,2.7-.9,3.1-1.1,1.3-.2,1.6-.9,1.2L528,939l-.7,1.6v1.7l-.2.6-.2,5.2-.7,1.5V951l-1.9,2.8-3.6,3.2-.9,1.3-1.6.8-.8,1.3-.2,1.6-.9,1.3v1.8l-.7,1.6v1.9l-1.2.7v2.6l-2.9,6.8v1.9l-.9.9v3.8l-2.2,4.1.2,2.2-1.3,1.6-.5,3.6-.9,1.1-.2,3.5-1,1.3-.4,1.7-1.9,2.6-.5,1.4-.9,1.1-3.6,10.1-.8,1.3-.5,5-2.6,2.5-2.9,9.1v3.6l-.6,1.4.3,5.4,1.2,1.6v7.8l.9,3.2v4.6l-3.5,1.2-2,1.8-3.3,1.2-2.8-4.7-3-.8h-4l-1.3-2.8-2.8-1-2.3-1.5-4.3.2-.5-2.2.8-3.3,1.8-1-2.8-1-1-2.6-4.8-2.7,1.8-2.3,2.5-1.3-.3-7.5-2.5-1.6-1.3-2.5h-2.7l-3.8-4-3.6-1.8,4.8-14.6,6.6-1.1,1.3-2.7-.8-3.3-2.8-2-2.5-5.3-4-2.6-.3-3-1-3,4.3-3.3v-3.8l-4-8.1-.6-4.3-1.7-1-1-3,.5-3.5,2.7-5.1-1.2-2.8,1.5-2.2,1-2.8-.2-3.6,1-2.5,2-2,.7-3,1.8-2.1.3-1,4-5.5.3-3.6,1.7-2.2.3-2.6,3.3.6,3.5-1.8,6.1-1.3,3-6.3,11.1-.5,2-2.3.3-3.5,1.7-2,.6-9.9,2-2-1-2.3v-3.8l-1-3.2-2.6-1.3-3.3-.3-2.7-2.5-.8-1.5-.7-3v-3.8l.4-1,.7-6.8-2.8-3.9-5.4-.4-2.9-8.5.4-5-1.4-1.5-1.8-3.9v-5.3l1.1-4.3,10-12.9.7-1.8v-3.9l6.4-4.6-1.4-4.3-2.5-2.5,1.8-4.3,3.5-3.9-1-22.5,3.2-2.2,2.1-5,3.6-1.8-1.1-3.9v-3.9l1.4-4-.3-1.7-1.1-.8,2.9-3.5,3.5-1.5,6.8-5.7,5-6.4h4l7.8-2.1,2.9-2.9,8.3-3.6,1,2.5,3.8,4.8-.3,3.8,3.8,9.1.7.8,1.3,2.5h4.3l5.3,3.3,3.5.2,3.6,4.1,1.2,2.5,2.8,1.3h1l.5-1.3,5.3-2.5,5.1,3.3,1.8,2.2,1.2,2.8V762l3.8,5.3v2.8l2.5,1.5,3.1,1,1.7,2.3,1,.7,4.6.3,2,1.8,1.8,3.3.2,3.5,2,.2,2.6-1.7,9.8-1.5,1-2.8V767.3l-.7-3.5,1-2.8,4.3-3.5,3-5.8.3-2.8,1.5-2.8v-3.8l2.2-1.8,1.6-6,1.2-2.5,2.3-1.6,1.8-2.2.5-8.9,12.1-18.4v-.3l-3.3-1.7-2-2.3-.5-4.5.2-.3,7.4-13.1,4.3-3.6,2.7-1h3.8l3.1.8,2.2,1.8,3.2,1Z" style="fill:#efa;stroke:#000;stroke-miterlimit:10"/><g id="fb9e462a-cd44-4e40-98fc-372785328ae0" data-name="Penghu"><path id="ffd5c1f5-63e3-4ee6-afef-14f53eadaca0" data-name="path2464" d="M93.3,612.7v0Z" style="fill:#efa;stroke:#000;stroke-miterlimit:10"/><path id="bf2bd966-144c-4999-bfaf-8670280240d1" data-name="path2466" d="M111.1,606.3l.7-2.5,2-.7-.9,1.4-.5,2.3-1.3-.5Z" style="fill:#efa;stroke:#000;stroke-miterlimit:10"/><path id="a151e790-7b60-446c-a7cd-d28e659d55a8" data-name="path2468" d="M119.9,599.3l2.3-.3-.5,1.8-1.8-1.5Z" style="fill:#efa;stroke:#000;stroke-miterlimit:10"/><path id="eb585d3b-65d8-413a-8651-5d9b4d212e68" data-name="path2470" d="M77.4,647l-.2,2.5,2.1-.9L77.4,647Z" style="fill:#efa;stroke:#000;stroke-miterlimit:10"/><path id="be1885c4-4274-4cc2-9024-9377a56ef752" data-name="path2472" d="M81.1,653.3l-4.3,2.3-1.6-.7.4,2.3,5.3-.4,4.1-2.5-.3-1.2-2.5-.4-1.1.6Z" style="fill:#efa;stroke:#000;stroke-miterlimit:10"/><path id="f85082b2-8757-4f84-b9b7-112bbeb503fa" data-name="path2474" d="M74.2,607.9l-.7,1.2v.8l.8.9-1.6,1.4.4,1.1,1.1.5.8.7.3.8-.9.5-.7,2.1.5,1.2-1.2.3H71.6l-1.1.8.3.9,1.5.3,1.8,2.3v1.4l-.6,1-1,.7-.7.9-.9.8-1,.2-1.8-1.6-1.3.5-.9.7-.6,1-1.5,1.3-.6.9.9.5h1.3l.6-.8h4l.8-.6.9-.4,2.5.4,1.2.5h1.3l1.2-.5-.4-1.2-.8-.9-.3-.9v-1.3l1.5-1.4L76.7,622l3.6-3.3-.3-.9-1-.7-.2-1.1.6-2.2-.5-1.1-.6-.9-.3-1,.4-1,.9-.6H82l2.3-.7,1-.6.2-1.3-.7-.6-1.1.9-1.1.3-1.2-.6-2.2-2.4.3-1.2-.3-1H78.1l-.8.7-2.2,4.1-.9,1Z" style="fill:#efa;stroke:#000;stroke-miterlimit:10"/><path id="e27de932-b659-4e77-9dc0-fdabe0ba0ae1" data-name="path2476" d="M89,597.5l-1,.9v1.2l3,2.1.6,1,.7-.6.9-2,.9-.7h2.7l.6,1.2V602l.7.8.4,1,2.3,2.3.4,1.3.9.2.8-1,.2-1.4,2.2-1.2,1.3-.2v-1.2l-1.3-1.1-.5-.8.8-1.4h-1.5l-1.6-3.2h-.8l-.8.5-2.1-.6-.3-1.1-1.3-.2-1.3.6-.5,1-1.3.3-2.4-.3-1-.5-.3-.6L89,597.5Z" style="fill:#efa;stroke:#000;stroke-miterlimit:10"/><path id="b5358c4b-da98-4df8-adcb-b2abcf6bb2ac" data-name="path2478" d="M101.2,608.9l-1.4,1.9,1.8,1.7h1.3l1-.7v-1.2l1.7-2.1-.8-.5h-1.4l-1.2.3-1.1.6Z" style="fill:#efa;stroke:#000;stroke-miterlimit:10"/><path id="f4dfbe71-b2c7-4258-9094-51a6a7bdab8b" data-name="path2480" d="M104.5,612.8l-1.1.6-.4.9.4,1.1,1,.5h1.4l1.2-.2.4-1.2-.7-.9-1.1-.6-1.1-.2Z" style="fill:#efa;stroke:#000;stroke-miterlimit:10"/><path id="a4f0dc9a-abc6-4b45-b8b4-f5dbc2317751" data-name="path2482" d="M97.5,621.7l-3,2.5-1.1.3H92l.6,1.2V627l-.2,1.3-1.8,1.5-.2,1.3,1,.6,2.4-1.1,1-.7h1.4l.9.6.8.9-2.7,2.8-1.3.2-2.7-.4,1.5,1.7,2.1.9,1.6-.2,1.1-.7h4.1l.8,1,.4,1.2-1.3,2.1-.2.8,1.2.8v.9l-1.1,1.1h-1.2l-.8-.7-1-.5H96.9L95.3,646l-1.5,1.6.6,1.1,2.6.3,1.4-.2,1.8-.6h1.5l1.7,1.8,1.1-.3.2-1.2,1.1-.9v-1.3l.4-1.2-1.1-.7-.2-.9.9-1,.7-1.2,4.4-3.5h1.2l2.2-2.8.4-1.1,1-.8,6.1-.2,1.9-.9.8.7.3,1.3.6,1.2,1.1.7,1.2-.3,1-.5h1.4l.6-.8-3.2-3.3-.8-3,.4-1v-1.4l-.5-1.1-2.5-2.6-.6-2.1-.7.8-.4,2.5-1.2-.2-.6-1.2-.8-.9.3-.8.7-.5-1.7-1.7-1.1-.4-.8.8-1.7,3.1h-1l-.9.2-1.5,1.5-.3,1.1-.7.2v-4l1-2.2-1.5.2-.8.5-5.2.9-.8.7v1.2l.7,1v1.3l-.5.9-1.3.4-.8,1v2.7l-.7.8-1.3-.6-1-.9.2-1.8-1.5-.2-.2-1.2.8-1.2v-.8l-.8-1Z" style="fill:#efa;stroke:#000;stroke-miterlimit:10"/><path id="af585964-5fbb-4cd7-8d81-bde5f9c25150" data-name="path2484" d="M87.2,634.4l-.5,1.4-1,.4-.4,1.2V640l1.5.7.5.7.9.8.3-.9-.7-.9,1.2-1.1-.7-.8-.3-2.8-.9-.7" style="fill:#efa;stroke:#000;stroke-miterlimit:10"/><path id="a1fe8388-0aad-4743-aa89-c592e717f890" data-name="path2486" d="M89.5,642.6V644h4.4l.5-.8-.7-.9-1.1-.8-.5-.8-.3,1-2.3.8Z" style="fill:#efa;stroke:#000;stroke-miterlimit:10"/><path id="a36c8360-c94a-4b8f-b561-df2f1241d290" data-name="path2488" d="M104.6,571.1l-1.9,3.1.4,1.7,1.3.5,1.1-1.8,1.3-1,1.6.2,1.3-.6,1.1-1.1-4.1-2.9h-1.1l-1,1.8Z" style="fill:#efa;stroke:#000;stroke-miterlimit:10"/><path id="ebcc0e1f-bfda-4474-8ae0-f15db10f928e" data-name="path2490" d="M17.5,680.5l-1.4,3.2,1.4.9,1.7-.4,1.3-.9v-1.2l-2.2-1.8-.8.2Z" style="fill:#efa;stroke:#000;stroke-miterlimit:10"/><path id="fb8e5b7d-3d54-4e5e-8937-b758446696fb" data-name="path2492" d="M69,685.6l.9,1.9v8.7l-.4,1.6-1.5.7.9,1.2,5.6.2.3-.9-.6-1.4.6-1.3,1.7-.5,1.2,1.4,1.3.9,1.5-.5.9-1h1.9l1.1-.8-.5-1.6-.7-1.3-1.7.6-2,2.3L75,693.2l-.5-1.4V688l-1.1.2H71.6L69,685.6Z" style="fill:#efa;stroke:#000;stroke-miterlimit:10"/><path id="b43031c6-b83b-4802-8839-62c0a29a6794" data-name="path2494" d="M79,726l.3,1.9h1.6l-1-1.4L79,726Z" style="fill:#efa;stroke:#000;stroke-miterlimit:10"/><path id="a480a020-0492-4d47-92a0-e74d99a56f1f" data-name="path2496" d="M82.5,728.8l-.5,2-1,1.4,1.7-.5,1.7-2.3-1.9-.6Z" style="fill:#efa;stroke:#000;stroke-miterlimit:10"/><path id="bddd44a4-f914-44c6-9ec6-073469684ee2" data-name="path2498" d="M122.1,730.3l-.9,1.9.7,1.1v1.4l1.2,1.1h.7v-1.9l1.3-1.4.6-1.2-1-.9h-2.6Z" style="fill:#efa;stroke:#000;stroke-miterlimit:10"/><path id="f026fe11-c47f-4481-88cc-5d8e62c1e24d" data-name="path2500" d="M50.5,743l-3.2,1.2-.4,1.5.4,1.8,1.1.8v1.9l1.8,2.4.6.3.2-1.8,1.5-1,1.5-.4.4-3.6,1.2-1.2-2.5-2Z" style="fill:#efa;stroke:#000;stroke-miterlimit:10"/></g><path id="ef2d4518-f7e3-4fa5-be2c-29e028f76cea" data-name="Chiayis" d="M339.8,655l.5,3.3,3,3-2,4.6,10.1,1.5,1,2.7,2,2.8,2.6,1.3,2.5-1.5,1.2-2.6,4.6-3.5,2,1.8,4.6,1.5.7-2.5,3.6-4.3-2.1-2-.7-3.1-3.1-.7-1.2-2.6-2.3-1.5-2.8,1-2-1.7-1.8-2.6-2.5-1.2-3,.7-7.1,5.1-3-.8-4.8,1.3Z" style="fill:#efa;stroke:#000;stroke-miterlimit:10"/><path id="eb398568-e53c-4c99-b62e-e443129b361f" data-name="Pingtung" d="M491.9,1065.3l-3,1-2,1.8-3.3,1.3-2.8-4.8-3-.8h-4.1l-1.2-2.8-2.8-1-2.3-1.5-4.3.3-.5-2.3.8-3.3,1.7-1-2.7-1-1-2.5-4.8-2.8,1.7-2.3,2.6-1.2-.3-7.6-2.5-1.5-1.3-2.6H454l-3.7-4-3.6-1.8,4.8-14.6,6.6-1,1.2-2.8-.7-3.3-2.8-2-2.5-5.3-4.1-2.5-.2-3.1-1-3,4.3-3.3v-3.8l-4.1-8-.5-4.3-1.7-1.1-1.1-3,.6-3.5,2.7-5.1-1.2-2.7,1.5-2.3,1-2.8-.3-3.5,1.1-2.6,2-2,.7-3,1.8-2,.3-1,4-5.6.2-3.5,1.8-2.3.3-2.5,3.2.5,3.6-1.8,6-1.3,3.1-6.3,11.1-.5,2-2.2.3-3.6,1.7-2,.5-9.9,2.1-2-1.1-2.2v-3.8l-1-3.3-2.5-1.3-3.3-.2-2.8-2.6-.7-1.5-1-8.3-3.8-2.5-2.3.7-.2-1.2-2.6-1.3-1-.2h-3.3l-1.5,2.2-5,2.5-1.8,2.3-2.8,1.5-2.7-1.5-6.4-7.6-8.5-5.3h-3.8l-3.1.8-3.2,4.8-3.1.8-1,1h-2.8l-2.7-1.3V859l-1.8-2-3-1.3-3.1.8-2.7,2-3.6.3-6.5,4.5-1.3.5-4,3.3-.3,1.3-2.5,3.2-2.3,1.8-3.5.3-6.1-1.6-2.8,1.3h-3.8l-1.5-2.3-4.5-.2-1.8-.8-2.5,1.3-1.5,9.8-1.3,2.6-.5,3.2-1.3,2.8.3,15.2-.8,1.2.3,4.6-1.8,6.8-1.8,2.3-2,6-.2,18.2,3.5,4.3-2.8,16.4-1.2,2.8-2.5,2.2-.2,1.9-.7,1.1-.2,3.8-.5,1.2.8,1.8v9.1l2.9.2,2,1.9v1.8l-.9.3,1.8,2.3,5,3.7.9,1.3,1.4.6h.5v.4l3.1,1.3,1.1,1.2,1.5,1.1,2.9,1,1.2,1,1.5.7,1,.9,1.6.8,1.2,1,9.6,5.2,1.1,1.3,1.6.6,10.9,8.7.9,1.2,2,5.4-.4.8,5.5,3.7,5.8,7.3.5,1.5v4.8l1.8,2.9.7,3.4v1.8l-.5,1.5v1.5l4,3.4.9,1.3,1.3,1,.7,1.3,1,3.5,3.3,3.4-.9,1.8v1.9l.4,1.7,1.2,1.3,1.6,4.9v5.6l1,3.3v1.9l.7,1.2.5,2.2,1.2,1.1.8,1.3.3,1.7,1.3,1.4.3,3.6.7,1.2v1.9l-.7,1.3-5.2,1.5.2,1.6,1.8.4.5,1.3v.6l.4,1.6.6,1.3-.6,1.3-.9,1-2.6,1.5-.2,1.6,1,1.2-3.8,3.5v3.7l1.5.8v2l1.3,1.1-.4,1.5,3.9,3.4.4,1.4,1.3,1.3.7,1.2.5,2.5-.8,3.1v5.9l-1.1,2.7.8,1.1,1.8.2.9,3.3,1,1.7,3.9.4,1.5-2.4,1.2-.9.2-1.7-.7-3.1.6-1.4,1.4-.6,2-2.2,1.3-.6h1.8l.5,1.4,4.2,2.9h2.8l1.6.3.7,1.3,1.5.4,1.4.9,1.9.6h1.9l3.8,3.8v1.8l1.9.6.9.8.6,1.2v1.8l2.7,2.5h1.8l1.3-.9-.2-1.6-1.1-.9-.3-1.6v-1.8l-.5-1.4-4.9-7.4v-7.3l.5-1.5-.6-1.3.5-3.1,1-.3v-1.7l3.4-.5,1.6-.6.7-1.3,1.5-.3,1.3-1.1.5-1.5v-1.7l.9-1,1.7-.2.4-3.4,3.7-2.4.3-1.4-2-2.5v-9.3l-1.1-1.7v-1.9l2.6-4.5,1-1v-1.6l-1.5-.6-2-2.1-.6-1.7-.3-4.8.3-.7h.8l.5-.7.8-.5.3-.7-.9-1.3v-3.7l-.9-1.3.3-.6.5-.6.3-.6.2-.7-.2-.8v-1.9l-.3-1-.4-.5v-1.2l-.6-.8-.3-.8.2-1.6,1.4-1.2.4-.6.2-.7V1076l-.2-.8v-.7l.2-.5-.9-1,.7-3.3,1-1.1.5-1.4-1-1.1v-.9" style="fill:#efa;stroke:#000;stroke-miterlimit:10"/><path id="f5c27207-82da-4dfa-9ab3-0c7c526eed99" data-name="Chiayi" d="M267,713.8l-.2-1.7-1.7-.6h-3.7L261,710v-5l3-7h1.4l3.7-1.5,1.3-5,1-1.7-.3-3.5-.6-.9-1.4,1.3-1.3-1-.8-1.6v-1.8l1-3.2v-1.6l-1.5-.4v-1.8l2.2-4.2h-1.7l-1.6-.8-.4-2.1.8-1.5v-2l.9-1.1.5-1.8.7-1.4v-1.9l-1.4-.6-5.6.4-1.8-.7-.9-1.5.4-9.1,1.6-.9,3.8.2,5.8,2.2h3.8l1.5,2.3H279l2.8-1.2,6.3,2.2,3.8.5,2.3-1.7,1.7-2.3.3-3.5-.8-3.1,2.1-2h3.2v3.3l3.6,1.3,1-2.8,4.8-2.8.7-3.5,1.8-2.1,6.3-2.5,2.8,1.5,1.8-6,1.5-2.6,4,.3,2.6-1.3,1-3,5.8-1.8,1-2.7,2.3-1.8,1.7-2.3,2.8,1.3,2.3,1.8,2.8,1,5.8-2.3h7.5l5.3-2.8,5.1,1.3,1.5,5,4.3,3.6,1.5,2.2,2.5,1.6,3.6.2,2.2,1.8,3.1,1,13.9,1.5,2.7-1.5,1.8-2,5.6.2-.5,3.8,2,3.3,2-2,3.3-.8,2,2,3-.2,2.8-1,3.6.2,2.7,1.5,3.6.5,1.2-2.5v-3.5l-.7-3-1.5-2.3,1.6-2.4,6.4-.7,11.7,4.3h3.7l3.3.8,1.3,2.5.2,8.6-.7,3.3-2.8,2.3v3.8l1.5,2.5,2.3,2,.5,7.3,2.5,5.8,2,2.3,11.4,1.3,5.6-2.3,11.1,1,2.8,1,8.5.2-1.2.3-2.6,1.3-6.5,1-2.3,1.5-6.3,1.3-4.3,3.5-1.5,2.5-2.8,1.3-2.3,1.8-3.2.5-2.3,2.5-1.8,4.3-1.8,1.5-1,2.8-1.7,2-.3,3.5-2.8,1h-3.7l-2.1,2.1-1.5,2.5-4,4-7.1.5-2.3,5.8-5,2.6-1,2.8-6.6.5-1.3,6.5-8-.2-2.3-2.1-7.8-.2-1.3,11.6,1.3,2.8,2,2.5v3.8l-2,1.8-2.6-1.3-6.3,1.3-3-1-3.5-2.6-3.8,5.6-3.1.7-3.2-.2-4.3-3-6.1-1.8-1-2.5,3.3-4.8-.8-2.6-2-3.2-.5-2.6,1.3-2.5-1.1-2.8-.2-3.5,1.5-2.8,2.3-1.7.2-3.1-1-2.7-3.5-.3-3.8-1.3-1-2.2,2.5-1.8-.2-3.3-7.9-.5v-3.3l2.6-1.7,1.5-2.3-2.1-1.8-2.2,1.3-3.1-.8-2.5-2-3.3-1-1.7-2.3-3.8-1-.3.5-2.2,1.5-3.3.3-2-2-3.3.5-5.3,2.5h-7.6l-6.1,3.5-.2.3-1.5,2.5-6.4-.2.3,3-7.1.5-.5,3.3-1.2,2.5-1.8,1.5-2.5-1.5-2.1,2,1.1,2.8-.5,1.8-9.6,4.8-.8,3-3.3,4.8-3,1.3-4.6-1.3-1.2-2v2.7l-2.5-.2-2.3-2-1-3.1-3.8-.7-2.7-1.8Z" style="fill:#efa;stroke:#000;stroke-miterlimit:10"/><path id="e4e6522f-37da-4ac0-851b-e4a0d01de658" data-name="Tainan" d="M417.6,743.6l-.9.8-2.6-1.3-6.3,1.3-3-1.1-3.5-2.5-3.8,5.6-3.1.7-3.2-.2-4.3-3-6.1-1.8-1-2.5,3.3-4.8-.8-2.6-2-3.2-.5-2.6,1.2-2.5-1-2.8-.2-3.5,1.5-2.8,2.3-1.8.2-3-1-2.8-3.5-.2-3.8-1.3-1-2.2,2.5-1.8-.2-3.3-7.9-.5v-3.3l2.5-1.8,1.6-2.2-2.1-1.8-2.2,1.3-3.1-.8-2.5-2-3.3-1-1.7-2.3-3.8-1-.3.5-2.2,1.5-3.3.3-2.1-2.1-3.2.6-5.3,2.5h-7.6l-6.1,3.5-.2.3-1.5,2.5-6.4-.3.3,3.1-7.1.5-.5,3.3-1.2,2.5-1.8,1.5-2.5-1.5-2.1,2,1.1,2.8-.6,1.7-9.5,4.8-.8,3.1-3.3,4.8-3,1.2-4.6-1.2-1.2-2v2.7l-2.6-.2-2.2-2-1-3.1-3.8-.7-2.8-1.8-.8-1-7.2-1.3-3.9,6.8.7,1.3h1l-.7,1.9-1.2.9-.3,1.8,2.8,1.6,1.1.3,1.7-.5-2.2,3.1-3.4,1.3-.9,1.3.3,1.7.7,1.5-2.5,2.4-.4,1.7L251,740l-2.4-.6-.6,1.3-.8,3.4v3.8l-4.9,9.2-.5,3.5-1.5,2.6,1.1-1.4,1.5-.7h1.5l.7,8,1.1.9,1.5.6-.9,5.3-3.2,1.4h-.3l-3.5,1.1-3.2,2.9-3.2,1.5-.3,3.6.3.5.2,3.7.8.8h1.9l-.2,6,.8,2.4,2.1,2.5.3.8,1.9-.7,1.2-.9,1.2-1.2,1.5-2.8,5.5-6.3,3.1-2,19.9-1.8,1,1,.8,3,6.8-.2.5,2.7,3,.6,2.6-1.3,6.3,2.8,1.5,2.5-2,2.5-3.3,1.3-5.3,7.6,3.8,2.5,7.3,9.3-3.3,8.4h-3.8l-2.8,1.2-.2,3.6-2.8.5-4.4,8.2,8.5,3.1,2.5-1.2,1.8,1,3.7,4h3.6l.5-.7,2.8,1.2,2,.3,1.5-2,17.9,4,3.8-.3,6.3-5.8,1.8-2.5,3-1,3.6-.3,2.5,1.6h3l1.5-6.4,1.5-.7,1.1-1.3.5-3.3,3.8-8.8,3-.8,1-3,.2-3.5,5.6-.3.3-3.5,9-6.6,3.6-5.5,10.3-7.1,2.3-2.5,3.8-2.3.5-3,.3-.3,1.2-.7.5-3.6,1.3-2.5.2-3.5,5.6-6.9,1.8-.2,8-10.9.3-3.8,4-5,.8-3-2.3-1.8-.3-.5Z" style="fill:#efa;stroke:#000;stroke-miterlimit:10"/><path id="fca9edf8-4b5a-45d2-96fb-b227bad11245" data-name="Kaohsiung" d="M330,978.1l6.9,5.5,1.7.8,2.8,2.5,5.4,1.6.3-.6-.9-14.5.9-2.9.9-1.1,1.8.4,2.5-2.2,2-5.8.2-3.5,1.8-6.1v-3.8l-3.5-4.3.2-18.2,2-6,1.8-2.3,1.8-6.8-.3-4.6.8-1.2-.3-15.2,1.3-2.8.5-3.2,1.3-2.6,1.5-9.8,2.5-1.3,1.8.8,4.5.2,1.5,2.3h3.8l2.8-1.3,6.1,1.6,3.5-.3,2.3-1.8,2.5-3.3.2-1.2,4.1-3.3,1.2-.5,6.6-4.5,3.5-.3,2.8-2,3.1-.8,3,1.3,1.8,2v3.8l2.7,1.3h2.8l1-1.1,3-.7,3.3-4.8,3.1-.8h3.8l8.5,5.3,6.3,7.6,2.8,1.5,2.8-1.5,1.8-2.3,5-2.5,1.5-2.3h3.3l1,.3,2.6,1.3.2,1.2,2.3-.7,4.5,3,.7-6.8-2.9-3.9-5.3-.3-2.9-8.6.4-5-1.5-1.4-1.7-4v-5.3l1-4.3,10-12.9.7-1.8v-3.9l6.5-4.6-1.5-4.3-2.5-2.5,1.8-4.3,3.6-3.9-1.1-22.5,3.2-2.2,2.2-5,3.6-1.8-1.1-3.9v-3.9l1.4-3.9-.3-1.8-1.1-.7,2.9-3.6,3.5-1.4,6.8-5.8,5-6.4h3.9l7.9-2.1,2.8-2.9,8.5-3.5.8-3.1-.2-3.5L523,701.2l-3.1-.8,1.1-3.5,1.7-2.6,3.3-1-.5-2.2,1.5-2.3,3.3-.5,1.5-2.3v-7.1l-2.3-1.5-.6-1.7-.9-.3-1.2-6.3-2.6-1.8h-.5l-9.8-2.7-1,.2-2.5,1.3-6.6,1-2.3,1.5-6.3,1.3-4.3,3.5-1.5,2.5-2.8,1.3-2.3,1.7-3.2.6-2.3,2.5-1.8,4.3-1.7,1.5-1.1,2.8-1.7,2-.3,3.5-2.8,1h-3.7l-2.1,2.1-1.5,2.5-4,4-7.1.5-2.3,5.8-5,2.6-1,2.7-6.6.5-1.3,6.6-8-.2-2.3-2.1-7.8-.2-1.3,11.6,1.3,2.8,2,2.5v3.8l-1.1,1.1h0l.3.4,2.3,1.8-.8,3-4,5.1-.3,3.7-8,10.9-1.8.3-5.6,6.8-.2,3.5-1.3,2.5-.5,3.6-1.2.7-.3.3-.5,3-16.4,11.9-3.6,5.5-9,6.6-.3,3.5-5.6.3-.2,3.5-1,3.1-3.1.7-3.7,8.8-.5,3.3-1.1,1.3-1.5.8-1.5,6.3h-3l-2.5-1.6-3.6.3-3,1-8.1,8.3-3.8.3-10.1-3.3-7.8-.7-1.5,2-2-.3-2.8-1.2-.5.7h-3.6l-3.7-4-1.8-1-2.5,1.2-8.5-3.2-1.6.7-3.3,3,1.2,1.4.8,4.2,3,6.3v1.9h.7l.2-1.6.6-1.3h1.9l2.2,5-.3,1.7-1.9.2-1.4-.9-.7-1.2-.4.9v1.7l.8,2.3v1.8l1.8,3.4v1.3l8.9,21.1.2,1.8,1.5,3.4,1.4,1.8,3.1,6.6" style="fill:#efa;stroke:#000;stroke-miterlimit:10"/><path id="bffb9576-27fb-428c-b5e0-39de8632ee6f" data-name="path2887" d="M330,978.1h0l-1.5-.8-3.9-3.2-.6-1.5-2.3-2.5-1.4-.7-3.3-3.6h-3.9l-1.6-.3v-.7l.5-.6,2.6-.5-2.7-4.6-1-1-.7-1.4-1-1.1-1.1-.8-1.3-1.7-.6-1.4-2.7-2.6-1.2-3.5-1.6-.7-.7-1.2,1.1-.7v-1.9l-.8-1v-1.9l-.9-1.4-2.8-2.5-.5-1.8.5-1.6.3-4.2,4-3.9-2.5-6.1,3.9,3.9,2.1-2.5-4.5-5.5-1.7-3.8" style="fill:#efa;stroke:#000;stroke-miterlimit:10"/><path id="e121268c-cbab-444b-a0a0-55a264b5b21e" data-name="tainan" d="M243.6,800.3l.3,1.6-.2,1.8,4.6,2.8.9.2,1.8,1.7,3.1,1.6,4,4.2,1.5.7,5.3,5v.5l3.4,3.2,2.4,3.7,1.7-.4,2.2-2.1,1.4-.8-1,2.2-.9,1.1v1.3l3.3.9-1.6,1.4-1.9-.2-1-1.4-.9-.5.7,1.9,1.2,1.5.5,1.7-.5,9.6-.5,1.4,1,2,1.2-.8,2.1-2,1.5-.6,4.5-8.2,2.8-.5.3-3.6,2.7-1.2h3.8l3.3-8.4-7.3-9.3-3.8-2.5,5.3-7.6,3.3-1.3,2-2.5-1.5-2.5-6.3-2.8-2.6,1.3-3-.5-.5-2.8-6.8.2-.8-3-1-1-19.9,1.8-3.1,2-5.5,6.3-1.6,2.9Z" style="fill:#efa;stroke:#000;stroke-miterlimit:10"/><path id="aa834136-b02d-41c0-be98-399eefe72f37" data-name="newTaipei" d="M821.2,158.5h-1.4l-1.1,1-1.1-2.1-1.4-.5-.9-1-1.5-.4H812l-.8.8-1.7,1.1-4-.4-5-4-.4-1.4v-5.7l-.6-.7,1.4-1-.3-.7-4.1-4.2-1.3-3,1.5-4.5,1.5-1.1.4-1.5-.6-1.2-1-.9-.6-.9.7-1.2,1.3-.8v-1.9h-1.8l-1.6.4-1,1-3.4,1.1h-2l-5.9-1.3-1.5.7-1.4-.7h-4.4l-2.9-.9-1.4.8-1.3,1.2h-1.6l-1-1.2.4-1.6.7-1.3.7-.6h-1.9l-1.7.6h-1.8v1.1l-.9,2.2-1.4,1.4-1.8,2.9-.9-.2-1.7-1.3-2.5-.5-2.9,3-2.3.6.5,2.1v4.8l4.7,4.5-.8,2.1-1,1.8-2.5.2-4.7,2.3-5.2-.3-5.3-4.7-7-1.8-1.6-1.7v-2l-1.4,1.2-2.3-.5-1.6-2.1-2.4-1.6-3-6.8-.2-2.5-1.4-1.6-2.3-.7-1.1-2v-2.7l4.8-.5,1.8-1.3,2-.7,2.5-.2,4.1-1.8,1.2-1.6,2.4-.5,1-1.6,2-.7,1.5-1.1-2.9-2.1-1.6-.5-1.6-1.1-.5-1.3.6-1.5,2.9-1.4-.2-.8-1.2-1,1-1.1,1.4-.8,1.3-1.1-.4-1.1-4.5,3.9-6.3.3-5-5-.2-1.3,1.2-1.3-.6-1.2h-2l-1.4-.6-2-2.1.5-3.7-.4-1.8-.6-1.3-1.2-1-3.6-5.2-3.2-1-1.7-2.2-1.4-.8h-1.9l-1.4-.9-1-1.1-1.3-.8h-.4l-1.4.3-1,1.1-.5,1.5h-6l-1.9-2-1.2.7v1.9l-1.1.8-5,.7-.7-1.6-.6.6-.2,1.8-1.5,1.1-3.4.9-1.3,1-1.7.5-3.5,7.5h-.6l-3.7-.5-1.3,1v1.8l-1,1.1-.4,1.5-1.3,2.6-.2,1.9-.9,1.2-1.3.8-2.1,2.1-.2,1.9-2.1,3.9-1.9.6-1.1-.2.2,1.2,3.4,3.1h2l3.5,1.7,1.5,2.6,1.4,1,1,1.3,2.1,4.4.3,7.6-.9.7-.2-1.6-.8-1.6-.3-1.7-2-2.6v-1.8l-.6-1.7-2.3-2.3-5.8-3.8h-1.9l-1.1,1-.7,2.4-3.6,3.5-1.7.5-2.8,1.7-1.5.4-4.1,2.7-5.2,1.7-1.3.8-12,.2-2.4,2.2-.9,1.4,1.8,2.5,1.2.4,1.3,1.6,5,.5,9.3,4.5-.6,3.6,2,1.7,5.2,1.3h5.3l1.3.9,1.8,2.1.5,2.4v.7l-.9,1.8.4,2.3,1.2,1.4,2.3,1.6-.9,1.6-1.9,1.3-2,.7,2.2,1.6V165l-1.6,1.1-2.1.7-2,3.6-2.8,2-11.3-.4-1.8.9-.5,2.1,1.1,2-.6,5-1.4,1.4-.9,2,1.3,2.3,2.1.2,1.6,1.2-2.1,1.5-1.3,1.4-.9,2,.9,4.2,4.5,2.7,3.4,5.2-1.3,1.6.4,2.2h.2l2.5,1.6-1.7,1.3-4.6.9-.2,2.1,2.5.4,1.6-1.3,1.6,1.6,1.8,1.1,2.9.7,2.7-.2,1.9-1,5.4-.4,1.2.7.4.9,1.4,1.5.7,1.9,2.9,2.9,1.6.9,1.6,1.8.2,2.5.9,2.5,2.3.7v2.7l-1.6,1-1.1,1.6-3.2,2.7-1.1,2,.4,2.3.9,1.8v1.1l1.9,5,3.3,3-.6,2,2.5,1,.2,1.8,2.5.7,1.4,2,2,1.4.5,5,1.5.6,4.8.3,2.3-1.4,4.6-.7,5.2-3.4.6-2.5,5.9-3.2,2.6-.2,2.2-.7,1-1.6,1.7-1.3,2.3-.4,1.4-4.2v-2.7l-.7-2.2-1.4-1.4-.4-2.5,2-1.6.3-2.3-.2-2.5.9-2,2.2-.5,1.8-1.1,2.5.7,2.3-1.8.5-2.1-1.4-1.3,10.5-1.2,3.6-1.8,1.6,1.8.7-2,2.2-.7,1-1.8,1.8-1.6.6-1.7,4.8-2.6,2.7-3.2,1.9-1,2.3-.4,7.5,1.1,1.8-.9,2.5-.6-.2-1.2.2-2.2,1.5-1.7v-2.2l-.5-2.3,2.5-3.2,3-2.5,2.4-.4,5.3.4,5.9-3.9,1.4-4.3-4.1-5.9.9-1.8.6-2.2,1.7-1.4,5.2.4,2.3.9h2.9l1.4-1.6,6.8-4.9,5.4-.3,6.2-2.3,2.5-.2,3.7.7h0l1.1-.5.8-1.6h1.8l.7-1.1,2.8-1.3.8-1.3,1.9-.2.7-1.4v-1.5Zm-102,.8-6.8-.4-2.1.6-1.6,1-5-.3-1.8,1.1-1.2,1.9v2.3l1.2,4.2-.2,2.1.4,2.5,4.8,2.3-.2,1.8h-2.8l-2.2.9-10-1.1-3.7-2.5-1.1-4.3h-2.5l-2.3-1.6-1.3-2.2v-2.7l-.7-1.9-1.6-1.3-2.8-1.2h-1.3l-1.2,1.8-2,1.1-2.2.2-1-2.2-.6-5.1.9-2,1.8-1.6,2.7-3.8-.2-8.2-1.4-2.7-3.6-3.4-5.7-.7-1.8-1.2-.7-2.3.4-2.4,1.7-1v-2.7l1.3-1.4.3-.8,1.3-1.2,1.2-2.7,2.4-.7.9-2.3,3-3.6,2-.9,2.5-.2,1.6-1,.9-2.3,3.7-2.2.9-2,2-.8,2.5-4,1.4,1.6,2,3.6,4.6-.4v2.7l-.7,2v2.7l2.9,2.8v5.2l1.1,1.6,2.9,2.5.5,1.8-1.4,1.6-.6,2.3,7.7,6.6.5,4.7-2.3,4.8-1,1.2,1.4,1.5.3,1.9-1.2,1.6.9,2,4.8,3.6,3.9,1.8,2.4-.7,1.6.7Z" style="fill:#efa;stroke:#000;stroke-miterlimit:10"/><path id="bd2fd5ce-b288-4c47-bc1d-3705c4701445" data-name="Taipei" d="M664.8,118.6l-1.2,2.7-1.3,1.2-.3.7-1.3,1.5v2.7l-1.8,1-.3,2.3.7,2.4,1.8,1.2,5.7.7,3.6,3.4,1.4,2.7.2,8.2-2.7,3.8-1.8,1.6-.9,1.9.5,5.2,1.1,2.2,2.2-.2,1.9-1.1,1.3-1.8,1.2-.2,2.9,1.3,1.6,1.2.7,2v2.7l1.3,2.1,2.3,1.6,2.5.2,1,4.3,3.8,2.5,10,1.1,2.1-.9h2.9l.2-1.8-4.8-2.3-.4-2.5.2-2.2-1.3-4.1v-2.3l1.3-2,1.8-1,5,.3,1.6-1,2.1-.6,6.8.4.5-1.5-1.6-.7-2.3.7-3.9-1.7-4.8-3.6-.9-2,1.2-1.6-.3-1.9-1.5-1.5,1.1-1.2,2.3-4.8-.5-4.7-7.7-6.6.5-2.3,1.5-1.6-.6-1.8-2.8-2.5-1.1-1.6-.2-5.2-2.8-2.9v-2.6l.7-2v-2.7l-4.7.4-1.9-3.6-1.5-1.6-2.5,3.9-1.9.9-.9,2-3.8,2.1-.9,2.4-1.6,1-2.5.2-1.9.9-3.1,3.6-.9,2.3-2.3.7Z" style="fill:#efa;stroke:#000;stroke-miterlimit:10"/></svg>